<svg width="21" height="20" viewBox="0 0 21 20" fill="none" xmlns="http://www.w3.org/2000/svg">
<path d="M9.40413 1.16801C9.74787 0.351549 10.9186 0.35155 11.2624 1.16801L13.2911 5.9869C13.4361 6.3311 13.7638 6.56628 14.1399 6.59606L19.4059 7.01314C20.2981 7.08381 20.6599 8.1838 19.9801 8.75906L15.968 12.1543C15.6815 12.3969 15.5563 12.7774 15.6438 13.14L16.8696 18.2167C17.0773 19.0768 16.1301 19.7567 15.3663 19.2958L10.8578 16.5752C10.5358 16.3809 10.1308 16.3809 9.80873 16.5752L5.30024 19.2958C4.53636 19.7567 3.58921 19.0768 3.79689 18.2167L5.02267 13.14C5.11023 12.7774 4.98507 12.3969 4.69851 12.1543L0.686314 8.75906C0.00653419 8.1838 0.36832 7.08381 1.26054 7.01314L6.52661 6.59606C6.90275 6.56628 7.23041 6.3311 7.37532 5.9869L9.40413 1.16801Z" fill="#B0B0B0"/>
</svg>
